<svg width="75" height="29" viewBox="0 0 75 29" fill="none" xmlns="http://www.w3.org/2000/svg">
<path d="M28.1633 14.4998C28.1633 22.2318 21.914 28.5 14.2065 28.5C6.49828 28.5 0.249756 22.2319 0.249756 14.4998C0.249756 6.76816 6.49823 0.5 14.2065 0.5C21.914 0.500046 28.1633 6.76816 28.1633 14.4998Z" fill="white"/>
<path d="M20.7572 13.524C18.5373 12.0106 15.6952 12.6269 14.2007 14.9024C12.9577 16.8043 11.0764 17.041 10.3517 17.041C7.97473 17.041 6.35295 15.365 5.87092 13.6316C5.87092 13.6316 5.84734 13.5439 5.84119 13.5241C5.65169 12.7995 5.6038 12.4554 5.6038 11.6866C5.6038 7.54379 9.84449 2.92884 15.9471 2.92884C22.199 2.92884 25.7771 7.70285 26.7016 10.3568C26.6844 10.3102 26.6682 10.2632 26.653 10.2158C24.8793 5.02557 19.9736 1.2951 14.1946 1.2951C6.92846 1.2951 1.03424 7.20461 1.03424 14.4995C1.03424 21.0184 5.72136 26.5978 12.2243 26.5978C17.4082 26.5978 20.8935 23.6824 22.49 19.6624C23.3678 17.4628 22.7478 14.8801 20.7572 13.524Z" fill="#003764"/>
<path d="M26.7821 10.6131C26.011 8.02396 22.4098 2.92877 15.947 2.92877C9.84441 2.92877 5.60373 7.54372 5.60373 11.6865C5.60373 12.4554 5.65162 12.7994 5.84112 13.524C5.76179 13.2067 5.72134 12.8908 5.72134 12.5819C5.72134 8.26608 10.0281 5.27657 14.4559 5.27657C20.4514 5.27657 25.3104 10.1509 25.3104 16.1625C25.3104 20.875 22.6062 24.9568 18.6792 26.9161V26.9197C23.7435 25.0799 27.3598 20.2136 27.3598 14.4994C27.3598 13.147 27.1791 11.9542 26.7821 10.6131Z" fill="#E4032E"/>
<path d="M40.9997 19.0393H39.4358V10.2367H34.5993V8.82778H40.9997V19.0393ZM44.1565 8.04342H45.7203V20.6952H44.1565V8.04342ZM52.6312 7.97075L56.5119 13.5632L55.2666 14.4201L52.6312 10.5854L50.0246 14.5219L48.7504 13.6649L52.6312 7.97075ZM58.7854 18.0079C58.7854 18.4342 58.6986 18.8336 58.5248 19.2063C58.351 19.579 58.1193 19.9059 57.8297 20.1869C57.5304 20.4676 57.1804 20.6903 56.7798 20.8551C56.3792 21.0197 55.9568 21.1019 55.5129 21.1019C55.0686 21.1019 54.644 21.0197 54.2385 20.8551C53.8331 20.6903 53.4806 20.4676 53.1814 20.1869C52.8918 19.9059 52.6602 19.579 52.4864 19.2063C52.3126 18.8336 52.2257 18.4342 52.2257 18.0079C52.2257 17.582 52.3126 17.1801 52.4864 16.8024C52.6601 16.4248 52.8918 16.0957 53.1814 15.8147C53.4805 15.5339 53.8331 15.3113 54.2385 15.1465C54.644 14.982 55.0687 14.8995 55.5129 14.8995C55.9568 14.8995 56.3792 14.982 56.7798 15.1465C57.1804 15.3113 57.5304 15.5339 57.8297 15.8147C58.1194 16.0957 58.351 16.4248 58.5248 16.8024C58.6986 17.1801 58.7854 17.582 58.7854 18.0079ZM57.2505 17.9933C57.2505 17.519 57.0768 17.1099 56.7292 16.7661C56.3817 16.4224 55.9712 16.2504 55.4984 16.2504C55.0253 16.2504 54.6173 16.4224 54.2748 16.7661C53.9319 17.1099 53.7607 17.519 53.7607 17.9933C53.7607 18.4679 53.9319 18.8747 54.2748 19.2135C54.6173 19.5525 55.0253 19.722 55.4984 19.722C55.9712 19.722 56.3816 19.5525 56.7292 19.2135C57.0767 18.8747 57.2505 18.468 57.2505 17.9933ZM59.4225 14.7543H57.8587V8.04342H59.4225V10.4982H61.2327V12.0524H59.4225V14.7543ZM63.5163 10.4547V9.13282H66.4704V7.89813H68.1356V9.13282H70.9448V10.4547H67.9039L71.0607 13.6793L70.0181 14.6525L67.2957 11.8201L64.6168 14.8849L63.5453 13.8827L66.702 10.4546H63.5163V10.4547ZM73.5802 18.0079C73.5802 18.4342 73.4933 18.8336 73.3196 19.2063C73.1458 19.579 72.9141 19.9059 72.6245 20.1869C72.3252 20.4676 71.9752 20.6903 71.5748 20.8551C71.174 21.0197 70.7516 21.1019 70.3076 21.1019C69.8635 21.1019 69.4389 21.0197 69.0334 20.8551C68.628 20.6903 68.2755 20.4676 67.9763 20.1869C67.6866 19.9059 67.4549 19.579 67.2812 19.2063C67.1075 18.8336 67.0205 18.4342 67.0205 18.0079C67.0205 17.582 67.1074 17.1801 67.2812 16.8024C67.4549 16.4248 67.6867 16.0957 67.9763 15.8147C68.2754 15.5339 68.628 15.3113 69.0334 15.1465C69.4389 14.982 69.8635 14.8995 70.3076 14.8995C70.7516 14.8995 71.174 14.982 71.5748 15.1465C71.9752 15.3113 72.3252 15.5339 72.6245 15.8147C72.9141 16.0957 73.1458 16.4248 73.3196 16.8024C73.4933 17.1801 73.5802 17.582 73.5802 18.0079ZM72.0454 17.9933C72.0454 17.519 71.8716 17.1099 71.524 16.7661C71.1765 16.4224 70.766 16.2504 70.2931 16.2504C69.82 16.2504 69.4122 16.4224 69.0696 16.7661C68.7269 17.1099 68.5555 17.519 68.5555 17.9933C68.5555 18.4679 68.7269 18.8747 69.0696 19.2135C69.4122 19.5525 69.82 19.722 70.2931 19.722C70.766 19.722 71.1765 19.5525 71.524 19.2135C71.8716 18.8747 72.0454 18.468 72.0454 17.9933ZM73.0879 15.1174V12.2414H70.8868V10.8905H73.0879V8.04342H74.6518V15.1174H73.0879Z" fill="#575757"/>
</svg>
