<svg width="116" height="29" viewBox="0 0 116 29" fill="none" xmlns="http://www.w3.org/2000/svg">
<g clip-path="url(#clip0_8_33)">
<path d="M94.2729 6.19043C93.1024 6.19043 92.6194 6.60758 92.3759 7.69232L89.5677 25.0555H95.8757L98.9303 6.19084L94.2729 6.19043Z" fill="#0066B3"/>
<path d="M22.2506 5.66313H16.7944C15.956 5.66313 15.4828 5.93309 14.9172 6.45188L8.68322 12.5225L10.1875 5.66272H5.24482C4.069 5.66272 3.58274 6.08474 3.34611 7.17477L0 25.0551H6.20474L7.90747 16.6386L13.6849 25.0551H21.4102L13.7207 14.1057L22.2506 5.66313Z" fill="#0066B3"/>
<path d="M106.682 20.6368L109.17 6.19043H104.508C103.355 6.19043 102.863 6.59335 102.621 7.62889L99.8015 25.0551H114.678L115.249 20.6368H106.682Z" fill="#0066B3"/>
<path d="M73.2298 25.0567L79.52 12.2541L79.5513 11.8288L82.0196 25.0608H88.4727L84.5111 6.19045H78.5531C77.6152 6.19045 77.2248 6.45716 76.8118 7.1215L69.0474 22.4957L63.507 17.4867C66.0148 16.7886 68.8018 14.8623 69.5829 11.6312C70.9754 5.89934 66.129 5.66312 64.523 5.66312H55.6308C54.4827 5.66312 54.2761 5.91032 54.0342 6.95643L52.3238 14.9932C47.9632 12.1577 38.0696 6.39861 31.1062 6.30266C29.3519 6.27989 28.0736 6.54661 26.8327 7.30731C26.6465 7.424 26.6002 7.41505 26.5733 7.40733L26.6697 7.20445C27.4186 6.28681 28.9522 4.81622 31.523 4.01852C31.523 4.01852 35.6383 2.57925 41.1539 5.93024C44.359 7.87367 46.5179 9.51664 48.6146 11.2482C47.0269 4.65522 40.8673 -0.0492581 33.836 0.551253C27.4548 1.0981 22.4401 5.80908 21.2513 11.7662C24.6502 8.72178 31.1725 7.64151 41.1616 11.0543C43.4027 11.8211 45.4677 12.6485 47.3583 13.5043C49.0834 14.2715 50.8304 15.1867 52.6572 16.2394C56.4196 18.4072 60.6228 21.4203 64.0225 25.0572H73.2298V25.0567ZM58.6887 15.3156C58.883 14.3728 59.9243 9.33043 60.0662 8.65795H62.3739C62.3739 8.65795 64.6767 8.52256 63.8554 11.6312C63.8554 11.6312 62.9419 15.3156 58.6887 15.3156Z" fill="url(#paint0_radial_8_33)"/>
<path d="M57.7202 20.1441C57.2214 22.3173 56.6916 25.0551 56.6916 25.0551H50.1831L51.6639 18.0869C50.2104 17.6128 49.1968 17.3245 48.7288 17.2082C47.538 23.1491 42.6172 27.9016 36.249 28.448C32.1162 28.8001 28.2533 27.3515 25.4426 24.7372L25.4304 24.7234C25.4304 24.7234 22.7227 22.2607 22.9333 18.7065C23.1418 15.0505 26.3619 13.5694 26.3619 13.5694C30.1 11.556 38.3823 11.3442 50.0917 16.3601C50.0908 16.3597 54.0265 17.9035 57.7202 20.1441Z" fill="url(#paint1_radial_8_33)"/>
</g>
<defs>
<radialGradient id="paint0_radial_8_33" cx="0" cy="0" r="1" gradientUnits="userSpaceOnUse" gradientTransform="translate(33.3848 11.3116) scale(16.9104)">
<stop stop-color="#00AFDC"/>
<stop offset="0.2" stop-color="#00AFDD"/>
<stop offset="1" stop-color="#0066B3"/>
</radialGradient>
<radialGradient id="paint1_radial_8_33" cx="0" cy="0" r="1" gradientUnits="userSpaceOnUse" gradientTransform="translate(33.3739 11.2423) scale(16.9611 16.9611)">
<stop stop-color="#00AFDC"/>
<stop offset="0.2" stop-color="#00AFDD"/>
<stop offset="1" stop-color="#0066B3"/>
</radialGradient>
<clipPath id="clip0_8_33">
<rect width="115.25" height="28" fill="white" transform="translate(0 0.5)"/>
</clipPath>
</defs>
</svg>
