<svg width="68" height="29" viewBox="0 0 68 29" fill="none" xmlns="http://www.w3.org/2000/svg">
<mask id="mask0_8_66" style="mask-type:luminance" maskUnits="userSpaceOnUse" x="0" y="0" width="17" height="29">
<path d="M0.81157 12.9415C1.54371 15.964 4.56266 18.0518 8.54043 18.7341L1.72462 22.0224V28.5C1.72462 28.5 14.2322 21.5195 14.7872 21.1605C16.1113 20.2983 17.0206 19.1834 16.9237 17.5469C16.8383 16.1523 15.8831 15.0657 14.5291 14.7001C12.9447 14.2731 11.2322 14.6291 9.61849 14.312C8.1981 14.0338 6.18376 13.3117 5.8001 11.7097C5.35903 9.86107 7.71689 7.49553 12.1615 5.80558V0.790405C4.35084 3.19798 -0.285451 8.40994 0.81157 12.9415Z" fill="white"/>
</mask>
<g mask="url(#mask0_8_66)">
<path d="M17.0206 0.791077H-0.285278V28.5H17.0206V0.791077Z" fill="url(#paint0_linear_8_66)"/>
</g>
<mask id="mask1_8_66" style="mask-type:luminance" maskUnits="userSpaceOnUse" x="11" y="0" width="18" height="29">
<path d="M16.8229 5.2299C19.8031 5.21026 22.089 6.14465 22.478 7.76935C22.9452 9.72441 20.5057 12.0339 16.8267 13.3301V9.54231C16.8267 9.51822 16.8229 9.49585 16.8229 9.47398V7.5114L11.9622 10.0787V19.6082L28.0094 28.4146V22.0407L19.189 17.4951C24.8891 15.1709 28.4634 10.6533 27.4667 6.53652C26.5639 2.80952 22.1864 0.507004 16.8229 0.5V5.2299Z" fill="white"/>
</mask>
<g mask="url(#mask1_8_66)">
<path d="M27.0209 -4.16125L4.0773 2.94055L13.4051 33.0755L36.3487 25.9737L27.0209 -4.16125Z" fill="url(#paint1_radial_8_66)"/>
</g>
<path d="M34.1658 23.2023L43.5573 23.2037C46.3802 23.2037 48.5925 20.7672 48.5925 17.6588C48.5925 14.5194 46.4531 12.2411 43.5061 12.2411L39.4024 12.2423C38.5825 12.2423 37.9654 11.6825 37.9654 10.9372C37.9654 10.1576 38.4244 9.63199 39.1081 9.63199L46.77 9.63506V5.69299H38.2893C35.3411 5.69299 33.2034 7.89216 33.2034 10.9202C33.2034 13.8308 35.6218 16.201 38.5929 16.201L42.2908 16.2035C43.0571 16.2035 43.8315 16.6806 43.8315 17.7493C43.8315 18.6336 43.0571 19.2954 42.367 19.2954H34.1658V23.2023Z" fill="#615F5F"/>
<path d="M54.9356 9.63332H59.9561C62.165 9.76724 62.1137 11.8168 62.1137 11.8168C62.1137 12.3893 61.8865 12.9384 61.482 13.3436C61.0775 13.7487 60.5288 13.9768 59.9562 13.9778H55.9055L62.3382 23.2149H67.2773L63.0792 16.8477L63.3225 16.7339C64.5146 16.1764 65.4811 15.2291 66.0626 14.0484C66.644 12.8677 66.8056 11.5241 66.5207 10.2392C66.2358 8.95432 65.5215 7.80492 64.4955 6.98061C63.4695 6.1563 62.1932 5.70632 60.8771 5.70492L60.6209 5.69757H50.348V23.2036H54.9356V9.63332Z" fill="#615F5F"/>
<defs>
<linearGradient id="paint0_linear_8_66" x1="1.62966" y1="14.6139" x2="12.3274" y2="14.6139" gradientUnits="userSpaceOnUse">
<stop stop-color="#C70075"/>
<stop offset="0.373" stop-color="#C50074"/>
<stop offset="0.553" stop-color="#BD0272"/>
<stop offset="0.692" stop-color="#B0056F"/>
<stop offset="0.809" stop-color="#9E096A"/>
<stop offset="0.912" stop-color="#860F63"/>
<stop offset="0.988" stop-color="#6F145D"/>
<stop offset="1" stop-color="#6F145D"/>
</linearGradient>
<radialGradient id="paint1_radial_8_66" cx="0" cy="0" r="1" gradientUnits="userSpaceOnUse" gradientTransform="translate(12.5369 19.6897) rotate(-17.199) scale(13.0987)">
<stop stop-color="#38A1DB"/>
<stop offset="1" stop-color="#003B90"/>
</radialGradient>
</defs>
</svg>
