<svg width="20" height="21" viewBox="0 0 20 21" fill="none" xmlns="http://www.w3.org/2000/svg">
<path d="M14.5874 18.0022C12.9766 18.0022 11.6708 16.6964 11.6708 15.0856C11.6708 13.4747 12.9766 12.1689 14.5874 12.1689C16.1983 12.1689 17.5041 13.4747 17.5041 15.0856C17.5041 16.6964 16.1983 18.0022 14.5874 18.0022ZM14.5874 16.3356C15.2778 16.3356 15.8374 15.776 15.8374 15.0856C15.8374 14.3952 15.2778 13.8356 14.5874 13.8356C13.8971 13.8356 13.3374 14.3952 13.3374 15.0856C13.3374 15.776 13.8971 16.3356 14.5874 16.3356ZM5.42076 8.83558C3.80993 8.83558 2.50409 7.52978 2.50409 5.91896C2.50409 4.30812 3.80993 3.00229 5.42076 3.00229C7.03159 3.00229 8.33744 4.30812 8.33744 5.91896C8.33744 7.52978 7.03159 8.83558 5.42076 8.83558ZM5.42076 7.16896C6.11111 7.16896 6.67076 6.60931 6.67076 5.91896C6.67076 5.2286 6.11111 4.66896 5.42076 4.66896C4.73041 4.66896 4.17076 5.2286 4.17076 5.91896C4.17076 6.60931 4.73041 7.16896 5.42076 7.16896ZM15.8967 3.43122L17.0752 4.60973L4.11154 17.5733L2.93302 16.3948L15.8967 3.43122Z" fill="#3D3F4A"/>
</svg>
