<svg width="20" height="21" viewBox="0 0 20 21" fill="none" xmlns="http://www.w3.org/2000/svg">
<path d="M8.75002 14.6667H3.33335V13H8.75002C10.3609 13 11.6667 14.3058 11.6667 15.9167C11.6667 17.5275 10.3609 18.8333 8.75002 18.8333C7.49966 18.8333 6.43307 18.0466 6.01832 16.9411L7.5793 16.3557C7.75705 16.8295 8.21415 17.1667 8.75002 17.1667C9.44035 17.1667 10 16.607 10 15.9167C10 15.2263 9.44035 14.6667 8.75002 14.6667ZM4.16669 9.66666H15.4167C17.0275 9.66666 18.3334 10.9725 18.3334 12.5833C18.3334 14.1942 17.0275 15.5 15.4167 15.5C14.1664 15.5 13.0998 14.7132 12.685 13.6077L14.2459 13.0223C14.4237 13.4962 14.8809 13.8333 15.4167 13.8333C16.107 13.8333 16.6667 13.2737 16.6667 12.5833C16.6667 11.893 16.107 11.3333 15.4167 11.3333H4.16669C2.78598 11.3333 1.66669 10.2141 1.66669 8.83332C1.66669 7.45261 2.78598 6.33332 4.16669 6.33332H11.25C11.9404 6.33332 12.5 5.77368 12.5 5.08332C12.5 4.39296 11.9404 3.83332 11.25 3.83332C10.7142 3.83332 10.257 4.17051 10.0793 4.6443L8.51835 4.05893C8.9331 2.95344 9.99969 2.16666 11.25 2.16666C12.8609 2.16666 14.1667 3.47249 14.1667 5.08332C14.1667 6.69416 12.8609 7.99999 11.25 7.99999H4.16669C3.70645 7.99999 3.33335 8.37309 3.33335 8.83332C3.33335 9.29357 3.70645 9.66666 4.16669 9.66666Z" fill="#3D3F4A"/>
</svg>
