<svg width="96" height="24" viewBox="0 0 96 24" fill="none" xmlns="http://www.w3.org/2000/svg">
<path d="M63.7599 2.38586L63.8337 2.33543C63.874 2.29392 63.8964 2.23836 63.8963 2.18055C63.8967 2.15121 63.8913 2.12208 63.8804 2.09485C63.8695 2.06761 63.8533 2.04281 63.8327 2.02187C63.8122 2.00094 63.7877 1.98429 63.7606 1.97288C63.7336 1.96148 63.7046 1.95555 63.6752 1.95543C57.742 1.58353 31.1842 4.57764e-05 20.6765 4.57764e-05C7.35039 4.57764e-05 4.9155 7.76486 4.9155 7.76486H11.828C13.4876 2.29626 21.0304 2.44124 23.5504 2.39261C33.8708 2.39261 58.0567 2.40207 63.6752 2.40387C63.7045 2.40387 63.7342 2.39667 63.7599 2.38586Z" fill="#C20430"/>
<path d="M5.17611 9.54964C4.38819 9.54964 4.18513 10.1719 4.18513 10.1719L0.815997 21.268L0.491376 22.3427L0.00196622 23.9465C-0.00613807 23.9762 0.0114212 24 0.0433882 24H5.49893C5.99464 23.9685 6.97301 23.7538 7.326 22.5931L11.2849 9.54964H5.17611Z" fill="#54565B"/>
<path d="M42.1119 16.4189L52.7002 9.54957H47.6548C47.1145 9.57793 46.902 9.63196 46.4194 9.91741L39.8135 13.8498L36.0121 9.59594C35.9867 9.56868 35.952 9.55209 35.9148 9.54957H29.0825C29.0505 9.54957 29.0424 9.57073 29.0649 9.59594L35.2629 16.5481L28.594 20.5034L28.5886 20.5106L28.589 20.5057C27.0775 21.4467 26.1523 21.9613 24.2167 21.9613H22.3221C21.771 21.9613 21.3145 21.9491 20.6851 21.6466C20.1173 21.3724 19.7783 20.9789 19.7598 20.3792C19.7504 20.0352 19.8368 19.5791 20.021 18.9897L22.2267 11.7175C22.2267 11.7175 26.2356 11.7175 26.2248 11.7184C26.6399 11.6932 27.3887 11.5 27.6525 10.6238L27.9767 9.54957H22.8453L23.2037 8.72968C23.7282 7.66847 24.5459 6.88911 25.5008 6.44292H20.9696C18.9805 6.44292 17.6167 7.15475 16.9242 8.54283L16.5514 9.54957H12.5808L11.9212 11.7175H15.9459L13.6285 19.3972C13.375 20.2504 13.2543 20.9163 13.2669 21.3755C13.2872 22.0793 13.6798 22.8095 14.6699 23.3354C15.7464 23.9086 17.3551 24 19.7062 24H28.4616C30.3909 24 31.6596 23.1612 31.6596 23.1612L37.7014 19.2833L41.2367 23.2116C41.2367 23.2116 41.8769 24 43.2137 24H48.829C48.8583 24 48.8668 23.9806 48.8443 23.9527L42.1119 16.4189Z" fill="#54565B"/>
<path d="M60.7511 19.6309C60.0131 19.3401 59.4553 18.9601 59.0785 18.4914C58.708 18.0362 58.4464 17.5025 58.3135 16.9308C57.8109 17.5199 57.2369 18.0441 56.6048 18.4914C55.9506 18.9601 55.1749 19.3401 54.2749 19.6309L54.88 17.5873C55.5873 17.2856 56.1686 16.8957 56.626 16.4162C57.0821 15.939 57.4553 15.4392 57.7453 14.9187C58.0182 14.435 58.2428 13.9256 58.4157 13.3978C58.5724 12.9035 58.7007 12.4901 58.7993 12.157L59.2977 10.4708H61.1541L60.6543 12.157L60.544 12.5316C60.4233 12.9443 60.3134 13.3602 60.2144 13.7787C60.1039 14.2417 60.0507 14.7165 60.0559 15.1925C60.0609 15.655 60.1611 16.1116 60.3504 16.5337C60.5399 16.9552 60.8754 17.3068 61.3571 17.5873L60.7511 19.6309ZM63.2337 24L65.8401 15.2001H64.7821L62.1752 24H60.2549L64.2621 10.4708H66.1823L65.2949 13.4667H66.3534L67.2408 10.4708H69.1773L65.1693 24H63.2337Z" fill="#54565B"/>
<path d="M69.1482 19.4121L71.7974 10.4708H78.6149L75.9675 19.4121H69.1482ZM71.6029 17.6638H74.565L76.1782 12.219H73.2148L71.6029 17.6638ZM76.7573 24L80.7653 10.4708H82.6855L81.7932 13.4829H83.7954L83.2812 15.2154H81.2808L78.6775 24H76.7573Z" fill="#54565B"/>
<path d="M84.3834 21.7691L84.1988 22.3936H93.15L92.6732 24H81.8346L82.93 20.3031H91.865L92.0496 19.6773H83.115L83.591 18.0704H94.4291L93.335 21.7691H84.3834ZM83.2416 17.4945L83.726 15.8557H95.7204L95.2355 17.4945H83.2416ZM91.5156 9.61401C92.0901 9.61401 92.6178 9.67524 93.0955 9.80131C93.5736 9.92512 93.973 10.1097 94.29 10.3542C94.6087 10.5991 94.8298 10.8985 94.9527 11.2533C95.0761 11.6045 95.0702 12.012 94.9329 12.469C94.7974 12.9323 94.5548 13.3572 94.2247 13.7094C93.8797 14.0765 93.4751 14.3826 93.028 14.6148C92.5471 14.8658 92.0351 15.0517 91.5052 15.1677C90.9503 15.2939 90.3828 15.3572 89.8137 15.3564C89.2284 15.3564 88.6976 15.2938 88.2185 15.1677C87.7399 15.0434 87.3441 14.8588 87.0321 14.6148C86.7183 14.3703 86.5013 14.0682 86.3811 13.7094C86.2582 13.3505 86.2676 12.9377 86.4063 12.469C86.5406 12.0137 86.7814 11.597 87.1087 11.2533C87.4516 10.8903 87.8521 10.5865 88.2941 10.3542C88.7511 10.1097 89.2554 9.92512 89.8087 9.80131C90.3598 9.67524 90.9294 9.61401 91.5156 9.61401ZM90.2865 13.7648C90.9379 13.7648 91.4863 13.6472 91.9357 13.4118C92.385 13.1785 92.6687 12.8638 92.7853 12.469C92.8956 12.0944 92.7965 11.7878 92.489 11.5482C92.1801 11.3092 91.6997 11.1885 91.0483 11.1885C90.3769 11.1885 89.8173 11.3092 89.3729 11.5482C88.9267 11.7878 88.6494 12.0944 88.5386 12.469C88.4207 12.8638 88.5148 13.1785 88.82 13.4118C89.1253 13.6472 89.6133 13.7648 90.2865 13.7648Z" fill="#54565B"/>
</svg>
