<svg width="94" height="24" viewBox="0 0 94 24" fill="none" xmlns="http://www.w3.org/2000/svg">
<path d="M7.64971 18.9521L7.60313 19.0703L6.57469 19.9659H2.74182L1.56964 22.9423H6.07804L5.66141 23.9996H0.789809C0.25687 23.9996 -0.122902 23.5873 0.0368368 23.1817L1.52935 19.3924C1.57975 19.2647 1.67994 19.1531 1.81535 19.0738C1.95076 18.9946 2.11435 18.9519 2.28232 18.9518H7.65L7.64971 18.9521ZM49.9082 20.9796L49.5432 21.9071H47.1163L47.4815 20.9796H49.9082ZM22.9292 18.9521L22.5297 19.9659H17.661L17.2615 20.9796H21.4958L21.1306 21.9069H16.8963L16.4888 22.9423H21.3575L20.9409 23.9996H15.6466C15.1849 23.9996 14.856 23.6424 14.9943 23.2911L16.5531 19.3337C16.5967 19.223 16.6835 19.1262 16.8008 19.0576C16.9182 18.9889 17.0599 18.9519 17.2055 18.9518H22.9292V18.9521ZM25.1187 18.9521C24.5274 18.9521 24.0048 19.258 23.8276 19.7077L22.4365 23.2398C22.2882 23.6166 22.6411 23.9998 23.1364 23.9998H27.6119C28.2031 23.9998 28.7261 23.6939 28.9032 23.2442L30.2943 19.7123C30.4429 19.3355 30.0897 18.9521 29.5945 18.9521H25.1187ZM27.5833 22.9425H23.9922L25.1644 19.9661H28.7555L27.5833 22.9425ZM38.4881 18.9521L36.4998 23.9998H35.6757C35.1022 23.9998 34.5912 23.7112 34.4012 23.2797L32.941 19.9661L32.9384 19.9597L32.9359 19.9661L31.347 23.9998H29.9082L31.8965 18.9523H32.8918C33.4654 18.9523 33.9763 19.2409 34.1663 19.6724L35.5385 22.7874L37.0493 18.9525H38.4881V18.9521ZM45.3063 20.9796C45.6138 20.9796 45.833 21.2177 45.7409 21.4515L45.0974 23.0867C44.8834 23.6301 44.2519 23.9996 43.5375 23.9996H38.9682C38.5433 23.9996 38.2404 23.6709 38.3678 23.3476L39.9449 19.3435C40.0366 19.1104 40.3078 18.9518 40.6142 18.9518H46.283L45.1134 19.9659H41.1382L39.9661 22.9423H43.7155L44.123 21.9069H41.6769L42.0421 20.9796H45.3063ZM68.7436 18.9521C68.1524 18.9521 67.6297 19.258 67.4525 19.7077L66.0615 23.2398C65.9132 23.6166 66.2661 23.9998 66.7613 23.9998H71.2368C71.8281 23.9998 72.351 23.6939 72.5282 23.2442L73.9192 19.7123C74.0678 19.3355 73.7146 18.9521 73.2194 18.9521H68.7436ZM71.2083 22.9425H67.6171L68.7893 19.9661H72.3804L71.2083 22.9425ZM82.1131 18.9521L80.1248 23.9998H79.3006C78.7271 23.9998 78.2162 23.7112 78.0261 23.2797L76.5659 19.9661L76.5634 19.9597L76.5608 19.9661L74.972 23.9998H73.5332L75.5215 18.9523H76.5168C77.0903 18.9523 77.6012 19.2409 77.7913 19.6724L79.1635 22.7874L80.6743 18.9525H82.1131V18.9521ZM88.9312 20.9796C89.2387 20.9796 89.4579 21.2177 89.3659 21.4515L88.7224 23.0867C88.5083 23.6301 87.8768 23.9996 87.1624 23.9996H82.5931C82.1682 23.9996 81.8653 23.6709 81.9928 23.3476L83.5699 19.3435C83.6616 19.1104 83.9328 18.9518 84.2391 18.9518H89.908L88.7384 19.9659H84.7632L83.591 22.9423H87.3404L87.7479 21.9069H85.3018L85.667 20.9796H88.9312ZM52.1459 18.9521L50.1576 23.9998H51.5964L52.4205 21.9071H54.8666L55.4178 22.9425H55.4704L55.4481 22.9988L55.9808 24.0001H57.6802L57.1313 22.969L57.1175 22.9428L56.5666 21.9073H56.9207C57.295 21.9073 57.6259 21.7137 57.7379 21.4289L58.4477 19.6278C58.5798 19.2931 58.266 18.9523 57.8259 18.9523H52.1471L52.1459 18.9521ZM56.2425 20.9799H52.7854L53.1849 19.9661H56.642L56.2425 20.9799ZM15.2649 18.9521L13.2769 23.9998H11.8381L12.9134 21.2697L12.1778 21.9071H9.12079L8.29695 23.9998H6.85816L8.84646 18.9521H10.285L9.48599 20.9796H13.0271L13.8264 18.9521H15.2649ZM66.5595 18.9521L62.9447 22.3611L62.701 22.5915L62.146 23.9998H60.4986L61.2147 22.1816L61.1701 22.2235L59.4293 18.9521H61.1304L62.2097 20.9796L62.3029 21.1551L64.6393 18.9521H66.5595ZM50.3114 16.3426H44.2007L38.1158 5.75248H32.4092L28.5532 16.3424H22.358L26.214 5.75248H21.4364L16.3673 8.32546L20.051 16.3424H13.7621L11.2677 10.9137L10.3607 11.3741L8.40354 16.3424H2.29004L7.63771 2.76692H13.7509L12.5116 5.91355L11.3137 7.20437L19.5887 2.76715H27.301L27.297 2.77831L27.3187 2.76715H42.511L44.1964 5.69985L43.1454 6.82482C43.538 6.58219 43.9592 6.32932 44.409 6.07029L50.3119 16.3429L50.3114 16.3426Z" fill="#144999"/>
<path d="M64.1523 6.10352e-05C61.1542 0.781251 57.1067 2.0985 52.8049 4.37919C49.2578 6.2596 46.8968 8.07418 44.9963 9.54953C42.9105 11.1682 40.2895 13.4126 37.5917 16.3426H31.7745C34.0037 13.7485 37.0228 10.8707 41.0639 8.17123C43.3226 6.66239 47.2658 4.07209 53.3667 2.13996C57.6465 0.784668 61.4559 0.238359 64.1523 6.10352e-05Z" fill="#C21540"/>
<path d="M73.104 9.98512H71.4186C71.7255 10.3225 71.9132 10.7075 71.9815 11.1411C72.0492 11.5746 71.9815 12.0369 71.7781 12.5283C71.5503 13.0773 71.1917 13.5856 70.7022 14.0526C70.2124 14.5196 69.624 14.9267 68.9365 15.2735C68.257 15.6008 67.5177 15.8608 66.719 16.0538C65.92 16.2463 65.0859 16.3426 64.2161 16.3426C63.3462 16.3426 62.5887 16.2463 61.9437 16.0538C61.2987 15.861 60.7721 15.6008 60.3643 15.2735C59.9643 14.9267 59.7162 14.5196 59.6199 14.0526C59.5236 13.5856 59.5893 13.0773 59.8171 12.5283C59.9968 12.0947 60.2552 11.6901 60.5921 11.3147C60.929 10.939 61.3305 10.5973 61.7968 10.2888C62.2626 9.98056 62.7784 9.71333 63.3436 9.48688C63.9086 9.26066 64.5092 9.08 65.145 8.94513C64.5598 8.60796 64.2081 8.20358 64.0895 7.73154C63.7843 8.00128 63.4236 8.25165 63.0076 8.48289C62.5915 8.71412 62.142 8.91642 61.6597 9.08979C61.1767 9.26316 60.6647 9.39826 60.1237 9.4944C59.5835 9.59061 59.0316 9.63905 58.478 9.63884L59.197 7.90491C59.8088 7.85684 60.3663 7.7509 60.8693 7.5871C61.3722 7.42353 61.8225 7.21143 62.2203 6.95149C62.9996 6.44095 63.5394 5.82447 63.8389 5.10206H60.4861L61.205 3.36813H64.6847L65.1819 2.16889H67.6106L67.1134 3.36813H70.575L69.8561 5.10206H66.5033C66.1998 5.83427 66.2226 6.45074 66.5727 6.95149C66.7436 7.21166 67.013 7.42353 67.3811 7.5871C67.7492 7.7509 68.2327 7.85684 68.8308 7.90491L68.4713 8.77176C68.9685 8.82963 69.4111 8.92349 69.7995 9.05357C70.1878 9.18365 70.5422 9.34495 70.8619 9.53768L71.8083 7.25471H68.9631L69.682 5.52079H72.5273L73.5698 3.00658H75.9984L73.1051 9.98535L73.104 9.98512ZM66.6118 10.5631C66.0801 10.5631 65.588 10.6137 65.1353 10.7148C64.6824 10.816 64.2752 10.9531 63.9134 11.1265C63.5517 11.2999 63.245 11.5072 62.9944 11.7478C62.7433 11.9886 62.5601 12.2487 62.4444 12.528C62.2046 13.106 62.3029 13.5755 62.7393 13.9369C63.1753 14.2982 63.9252 14.4786 64.9885 14.4786C66.0518 14.4786 66.951 14.298 67.6869 13.9369C68.4224 13.5755 68.9102 13.106 69.1499 12.528C69.3897 11.9501 69.292 11.4782 68.8579 11.1121C68.4235 10.7463 67.6749 10.5631 66.6116 10.5631H66.6118ZM80.3745 9.10392L80.6143 8.52594H80.0342C79.4421 8.52594 79.0386 8.37672 78.8243 8.07805C78.6097 7.77961 78.5925 7.4135 78.772 6.97997L79.5687 5.05832H90.8775L91.0993 4.52385H79.7901L80.4191 3.00681H93.051C93.4497 3.00681 93.7248 3.10067 93.8766 3.28862C94.028 3.47657 94.0403 3.72467 93.9123 4.03268L92.9119 6.4455H81.6027L81.381 6.98019H92.7807L92.1397 8.52617H89.5662L89.3264 9.10415H92.643L92.032 10.5779H88.6972C89.0293 11.1463 89.0458 11.7915 88.7464 12.5139C88.5186 13.0629 88.1791 13.5614 87.7276 14.0093C87.2761 14.4572 86.7469 14.8449 86.14 15.1723C85.533 15.4997 84.8663 15.7526 84.1399 15.931C83.4135 16.1091 82.6697 16.1982 81.9088 16.1982C81.1478 16.1982 80.4294 16.1091 79.863 15.931C79.2964 15.7526 78.8457 15.4997 78.5102 15.1723C78.1747 14.8447 77.9699 14.4572 77.8958 14.0093C77.8216 13.5614 77.8987 13.0629 78.1262 12.5139C78.4256 11.7915 78.9769 11.1463 79.7807 10.5779H76.4459L77.0569 9.10415H80.3734L80.3745 9.10392ZM84.252 10.5487C83.4061 10.5487 82.6486 10.7294 81.9793 11.0905C81.3098 11.4518 80.8534 11.9264 80.61 12.5137C80.3585 13.1206 80.4202 13.5974 80.7963 13.9442C81.1718 14.2909 81.7827 14.4643 82.6286 14.4643C83.4744 14.4643 84.2137 14.2909 84.8832 13.9442C85.5524 13.5974 86.0131 13.1206 86.2646 12.5137C86.3843 12.2248 86.4246 11.9599 86.3857 11.719C86.3466 11.4785 86.2388 11.2712 86.0634 11.0978C85.8874 10.9244 85.6445 10.7895 85.3341 10.6932C85.0235 10.597 84.6629 10.5487 84.2522 10.5487H84.252ZM83.0426 8.52594L82.8032 9.10392H86.8989L87.1384 8.52594H83.0426Z" fill="#144999"/>
</svg>
