<svg width="72" height="24" viewBox="0 0 72 24" fill="none" xmlns="http://www.w3.org/2000/svg">
<path d="M48.331 11.1061H46.2119L45.3463 13.9661C45.2315 14.3434 45.2582 14.6658 45.4215 14.936C45.5864 15.2066 45.8814 15.3414 46.3061 15.3414H54.1073L55.6997 13.5773H47.5815L48.331 11.1061Z" fill="#144999"/>
<path d="M57.1323 6.51751L57.8818 4.04287H55.7641L53.4811 11.5792H55.5988L56.5982 8.28298H58.0091L58.5442 6.51751H57.1323Z" fill="#144999"/>
<path d="M52.651 8.42615C52.3291 8.26951 52.0647 8.01546 51.8954 7.70005C51.7129 7.38678 51.6353 6.93026 51.6319 6.4358C51.6275 5.94135 51.7349 5.33311 51.954 4.60836L52.1237 4.04753H50.264L50.0944 4.60836C49.8752 5.33311 49.6118 5.94135 49.3026 6.4358C48.9937 6.93026 48.6388 7.38678 48.2666 7.70005C47.891 8.0228 47.4927 8.26562 47.0701 8.42615C46.6829 8.57442 46.2808 8.68014 45.8709 8.74145L45.372 10.388C46.2437 10.2837 47.2953 10.0609 48.0783 9.71782C48.8935 9.36087 49.6104 8.79055 50.2261 8.00891C50.3578 8.79055 50.7206 9.36087 51.3159 9.71782C51.8771 10.0558 52.3353 10.2783 53.1376 10.3833L53.6372 8.73467C53.269 8.67304 52.9409 8.57042 52.651 8.42615Z" fill="#144999"/>
<path d="M62.4481 11.1061H60.3305L59.4635 13.9661C59.3504 14.3434 59.3757 14.6658 59.5397 14.936C59.7043 15.2066 59.9992 15.3414 60.4236 15.3414H68.2244L69.8175 13.5773H61.7004L62.4481 11.1061Z" fill="#144999"/>
<path d="M69.1312 6.51751L69.881 4.04287H72L69.7164 11.5792H67.599L68.5984 8.28298H67.1859L67.7196 6.51751H69.1312Z" fill="#144999"/>
<path d="M68.3612 4.40047H65.6167L65.9384 3.34146H64.3687L64.048 4.40047H61.3024L60.768 6.16561H63.5139C63.5139 6.16561 63.2575 6.79823 62.9961 7.14367C62.7346 7.4881 62.4454 7.77867 62.1254 8.01134C61.8107 8.25053 61.461 8.4398 61.0887 8.57251C60.7266 8.70238 60.3501 8.78779 59.9674 8.82685L59.4912 10.402C59.9586 10.3932 60.4066 10.3366 60.8367 10.2343C61.2675 10.1321 61.6716 9.99491 62.0475 9.81948C62.3986 9.66684 62.7345 9.4812 63.0506 9.26508C63.1962 9.1628 63.3307 9.05917 63.4533 8.95283C63.5112 9.05917 63.5823 9.1628 63.6663 9.26508C63.838 9.4693 64.0585 9.65387 64.3331 9.81948C64.6044 9.99491 64.9248 10.1321 65.2926 10.2343C65.6617 10.3366 66.0759 10.3932 66.5379 10.402L67.0147 8.82685C66.6601 8.78858 66.337 8.70357 66.0471 8.57251C65.7698 8.44974 65.5297 8.25621 65.3508 8.01134C65.173 7.77867 65.0582 7.4881 65.0054 7.14367C64.9543 6.79823 65.0819 6.16561 65.0819 6.16561H67.8282L68.3612 4.40047Z" fill="#144999"/>
<path d="M33.1776 15.3417H37.7424L33.6432 6.05779L31.7335 7.3752L33.354 5.40111L32.1483 2.67011H14.9874L9.03064 6.80827L9.79366 5.87999L10.7297 2.75274H6.16383L2.39989 15.3417H6.9641L8.36719 10.6525L9.01811 10.2359L10.9292 15.3417H15.4924L12.6764 7.8876L16.4065 5.49797H20.0573L17.1129 15.3417H21.6785L24.6201 5.49797H28.8325L33.1776 15.3417Z" fill="#144999"/>
<path d="M23.7538 15.3417H28.7251C37.0617 4.95509 41.7109 1.9816 49.2544 6.10352e-05C36.6807 1.29546 31.4009 6.75781 23.7538 15.3417Z" fill="#C21540"/>
<path d="M59.3664 18.474L58.3528 21.8224H56.8873L58.409 16.8H57.1529L55.6326 21.8224H54.1665L55.1811 18.474H53.9257L52.842 22.0527C52.7732 22.2766 52.7881 22.4679 52.8857 22.6288C52.9835 22.7893 53.1586 22.8693 53.4103 22.8693H57.6165L58.2474 22.1706L57.9724 23.0789H59.2268L60.6232 18.474H59.3664ZM65.2582 17.219L63.4842 23.0789H64.7383L66.5136 17.219H65.2582ZM62.9603 17.221L62.1279 19.9855C61.7364 21.2775 61.501 21.8306 61.2406 22.2546C60.9835 22.7335 60.5331 23.214 59.8812 23.6943C59.6217 23.8961 59.5137 23.998 59.5591 23.998C59.553 24.016 59.9858 23.9144 60.4044 23.6943C61.2362 23.2692 61.838 22.808 62.2091 22.3098C62.6233 21.8116 63.0009 21.0364 63.3406 19.9848L64.211 17.221H62.9603ZM67.5604 17.219L65.5315 23.9144H66.7879L68.8155 17.219H67.5604Z" fill="#144999"/>
<path d="M38.6263 21.5412H35.8276L36.6766 18.7417H39.475L38.6263 21.5412ZM40.7406 18.522C40.805 18.3083 40.7921 18.125 40.6976 17.9726C40.6045 17.8192 40.4385 17.7417 40.1961 17.7417H36.5591C36.3251 17.7393 36.098 17.8213 35.9194 17.9726C35.7335 18.125 35.6075 18.3083 35.5438 18.522L34.5613 21.7613C34.4966 21.9747 34.5112 22.1582 34.6037 22.311C34.6965 22.4644 34.8638 22.5416 35.1052 22.5416H38.7445C38.985 22.5416 39.1983 22.4644 39.3846 22.311C39.5699 22.1582 39.6945 21.9747 39.7595 21.7613L40.7406 18.522Z" fill="#144999"/>
<path d="M22.9425 18.7419L23.8447 17.7418H19.8261C19.592 17.7394 19.3647 17.8214 19.1861 17.9728C19.0001 18.1252 18.8748 18.3084 18.8098 18.5221L17.8287 21.7614C17.764 21.9748 17.7789 22.1584 17.872 22.3111C17.9648 22.4642 18.1318 22.5417 18.3733 22.5417L22.3912 22.5411L22.6936 21.5413H19.0956L19.943 18.7419H22.9425Z" fill="#144999"/>
<path d="M0.840909 19.7616C0.777239 19.9749 0.791125 20.1585 0.883919 20.3105C0.977053 20.464 1.14435 20.5412 1.38481 20.5412H1.80509V20.5419H4.60349L4.3014 21.5406H0.303106L0 22.541H4.41824C4.65937 22.541 4.87205 22.4638 5.05798 22.3097C5.24425 22.1576 5.36956 21.9741 5.43424 21.7604L5.87011 20.3207C5.93479 20.1073 5.92023 19.9241 5.82709 19.7714C5.7343 19.618 5.567 19.5418 5.32655 19.5418L2.10786 19.5411L2.34967 18.7425H5.54871L6.45092 17.7418H2.23317C1.99903 17.7396 1.77189 17.8216 1.59309 17.9727C1.40682 18.1251 1.28219 18.3083 1.21751 18.522L0.840909 19.7616Z" fill="#144999"/>
<path d="M28.4426 17.7418L27.8696 19.6363H25.0705L25.6432 17.7418H24.444L22.9911 22.5411H24.1913L24.7674 20.6361H27.1662L27.7683 19.9689L26.9887 22.5411H28.1893L29.6418 17.7418H28.4426Z" fill="#144999"/>
<path d="M10.947 18.7419L10.5227 20.1413H7.72328L8.14797 18.7419H10.947ZM12.2126 18.5221C12.2773 18.3084 12.2634 18.1252 12.1703 17.9728C12.0768 17.819 11.9102 17.7418 11.6694 17.7418H8.03011C7.78966 17.7418 7.5763 17.819 7.39105 17.9728C7.20444 18.1252 7.07981 18.3084 7.01513 18.5221L5.79762 22.5411H6.99752L7.42119 21.14H9.81996L10.4211 20.4738L9.79592 22.5411H10.9962L12.2126 18.5221Z" fill="#144999"/>
<path d="M16.793 22.541H16.1045C15.497 22.541 15.1668 22.3331 14.9402 21.7634C14.714 21.1924 13.9452 18.7425 13.9452 18.7425L12.7951 22.541H11.5952L13.0487 17.7418H13.767C14.4227 17.7418 14.6991 18.0107 14.8907 18.4817C15.0821 18.9532 15.8969 21.5419 15.8969 21.5419L17.0474 17.7418H18.2463L16.793 22.541Z" fill="#144999"/>
<path d="M45.3214 22.541H44.6335C44.0256 22.541 43.6951 22.3331 43.4675 21.7634C43.2426 21.1924 42.4728 18.7425 42.4728 18.7425L41.3237 22.541H40.1239L41.5761 17.7418H42.295C42.9497 17.7418 43.2264 18.0107 43.4191 18.4817C43.6104 18.9532 44.4253 21.5419 44.4253 21.5419L45.575 17.7418H46.7739L45.3214 22.541Z" fill="#144999"/>
<path d="M28.9644 21.7615C28.8987 21.9748 28.9126 22.1584 29.0061 22.3111C29.0996 22.4642 29.2662 22.5418 29.5077 22.5418L33.7471 22.5411L34.0488 21.5413H30.2297L30.5037 20.6361H33.9039L34.2063 19.6363H30.8065L31.0774 18.7419H34.8975L35.201 17.7418H30.9605C30.7201 17.7418 30.5071 17.8191 30.3211 17.9725C30.1352 18.1252 30.0092 18.3084 29.9452 18.5221L28.9644 21.7615Z" fill="#144999"/>
</svg>
