<svg width="73" height="24" viewBox="0 0 73 24" fill="none" xmlns="http://www.w3.org/2000/svg">
<path d="M64.9396 1.27766C67.3845 0.677133 69.8755 0.282772 72.3769 0.00902842C72.5582 -0.00808054 72.7421 0.00132932 72.9244 0.0201492C71.5325 0.423065 70.1202 0.7661 68.7455 1.22975C65.3203 2.34611 62.0251 3.88677 59.0319 5.89708C55.8145 8.03056 52.9034 10.5909 50.178 13.3155C48.4697 14.9862 46.8435 16.7416 45.2925 18.5603C43.7818 20.3268 42.3498 22.16 40.9272 23.9984C38.3087 23.9915 35.6901 24.0035 33.0716 23.9924C36.2299 20.3182 39.4729 16.7048 43.0111 13.3908C44.177 12.2856 45.3918 11.2334 46.6313 10.2111C49.0745 8.27009 51.628 6.42147 54.4664 5.09723C57.8077 3.45563 61.3219 2.16048 64.9396 1.27766Z" fill="#E00024"/>
<path d="M2.33537 15.9315C3.48852 11.9827 4.62541 8.0297 5.78796 4.08438C8.16953 4.08866 10.5502 4.08438 12.9318 4.08694C12.4314 5.76619 11.9643 7.45741 11.4519 9.13238C11.1448 9.58491 10.7692 9.98697 10.4399 10.4232C13.4408 8.31115 16.4451 6.20418 19.4418 4.08609C28.3376 4.08523 37.2342 4.08694 46.1309 4.08523C46.7656 5.54035 47.4089 6.99119 48.0385 8.44802C47.5526 9.02202 47.0736 9.60288 46.6313 10.2111C45.3918 11.2334 44.177 12.2856 43.0111 13.3908C42.3481 11.7988 41.6252 10.2308 40.9477 8.64477C38.7663 8.63622 36.5858 8.64392 34.4044 8.64135C32.9099 13.7595 31.4274 18.8819 29.933 24.0001C27.5514 23.9881 25.1707 24.0069 22.7891 23.9907C24.2785 18.8742 25.7627 13.7569 27.2563 8.64135C25.4068 8.64135 23.5573 8.6422 21.7078 8.64049C19.7865 9.87491 17.872 11.1187 15.9515 12.354C17.4135 16.2343 18.8797 20.1121 20.3374 23.9941C17.955 24.0018 15.5726 23.9924 13.1902 23.9983C12.1936 21.3559 11.2012 18.7108 10.1986 16.0701C9.89326 16.2856 9.54338 16.4559 9.26536 16.6988C8.54764 19.1291 7.84788 21.5646 7.13871 23.9975C4.75886 23.9958 2.379 23.9966 0 23.9975C0.757927 21.3037 1.56034 18.621 2.33537 15.9315Z" fill="#000055"/>
<path d="M45.2925 18.5603C46.8435 16.7416 48.4697 14.9862 50.178 13.3155C51.7366 16.8759 53.309 20.4303 54.8548 23.9958C52.4629 23.9992 50.0711 23.9949 47.6793 23.9975C46.8794 22.1874 46.089 20.3721 45.2925 18.5603Z" fill="#000055"/>
</svg>
