<svg width="72" height="24" viewBox="0 0 72 24" fill="none" xmlns="http://www.w3.org/2000/svg">
<path d="M53.259 17.6125C53.0732 18.1346 52.5249 18.4882 51.5788 18.4882H40.4259L37.8407 14.191C44.3804 12.0001 45.2949 8.45467 45.2949 6.89756C45.2948 3.48779 41.2602 2 35.6756 2H20.7512C13.671 2 11.1688 5.66117 10.9026 9.32934C11.4163 7.95545 13.0919 5.51553 19.311 5.51553L32.9951 5.50924C35.8492 5.50924 39.7765 5.35375 39.7765 7.78323C39.7765 8.90372 38.9664 11.6609 32.042 13.7767L36.3312 20.8452C36.5122 21.1934 36.7854 21.4853 37.121 21.6889C37.4565 21.8925 37.8415 22.0001 38.234 22L52.7646 21.99C52.7646 21.99 56.8328 22.3969 58.292 17.7096L62.2432 6.73649H57.175L53.259 17.6125Z" fill="#4C2F48"/>
<path d="M56.157 2.00002C54.9009 2.00002 48.9319 1.94714 47.7531 6.93217H50.8486C51.1895 6.26474 51.8001 5.51155 54.2432 5.51155L68.279 5.50255C69.1191 5.50255 69.5968 5.25473 69.9508 4.64446L71.4597 2.00002H56.157ZM28.7548 6.74552L23.2606 21.9993H28.2813L33.8309 6.74552H28.7548ZM16.8363 6.92503C15.4898 7.13798 14.0954 7.48155 12.9824 8.43626C12.0888 9.2033 11.4963 10.052 11.4025 11.0192C11.3079 11.9954 11.8216 12.9578 12.3701 13.8899C12.9311 14.8435 13.4634 15.6015 13.4634 16.2232C13.4634 17.7313 11.4886 18.4891 8.8813 18.4891H2.54782C1.77777 18.4891 1.09005 18.9721 0.829361 19.697L0 21.9999C0 21.9999 7.09752 21.989 8.76453 21.989C9.59218 21.989 11.5219 21.8925 12.2904 21.7995C15.396 21.4243 18.4735 19.5011 18.6293 16.5442C18.7129 14.9555 17.4726 13.4154 16.6941 11.6592C16.0044 10.1036 15.3535 8.34093 16.8363 6.92503Z" fill="#4C2F48"/>
</svg>
