<svg width="84" height="24" viewBox="0 0 84 24" fill="none" xmlns="http://www.w3.org/2000/svg">
<path d="M24 12.0001C24 18.6294 18.6293 24.0001 12 24.0001C5.37067 24.0001 0 18.6294 0 12.0001C0 5.37073 5.37067 6.10352e-05 12 6.10352e-05C18.6293 6.10352e-05 24 5.37073 24 12.0001Z" fill="#F55839"/>
<path d="M24 12.0001C24 18.6294 18.6293 24.0001 12 24.0001C5.37067 24.0001 0 18.6294 0 12.0001C0 5.37073 5.37067 6.10352e-05 12 6.10352e-05C18.6293 6.10352e-05 24 5.37073 24 12.0001Z" fill="#F55839"/>
<path fill-rule="evenodd" clip-rule="evenodd" d="M12 3.00006C16.0625 3.00006 16.875 4.62903 16.875 6.63136V7.86711C17.32 8.37995 17.5983 8.97005 17.5983 9.60022V15.2801C17.5983 15.2801 17.2733 16.7201 15.78 16.7201H14.2875L17.1683 20.8267H15.51L14.9775 20.1334H9.02167L8.48833 20.9334H6.995L9.715 16.7201H8.21833C8.21833 16.7201 6.405 16.5067 6.405 14.9067V9.38689C6.405 8.83892 6.679 8.29124 7.125 7.80094V6.41803C7.125 4.72327 7.9375 3.00006 12 3.00006ZM15.6562 6.73343V6.86924C14.7503 6.32652 13.6713 6.00006 12.75 6.00006H11.25C10.2725 6.00006 9.21837 6.32692 8.34375 6.8372V6.59121C8.34375 5.46136 8.75 4.31256 12 4.31256C15.25 4.31256 15.6562 5.39854 15.6562 6.73343ZM10.1316 18.45L9.62914 19.2161H14.37L13.8675 18.4501L10.1316 18.45ZM11.347 16.6134L10.6191 17.715H13.38L12.6525 16.6134H11.347ZM13.125 8.25006C13.125 8.87138 12.6213 9.37506 12 9.37506C11.3787 9.37506 10.875 8.87138 10.875 8.25006C10.875 7.62874 11.3787 7.12506 12 7.12506C12.6213 7.12506 13.125 7.62874 13.125 8.25006ZM8.25 15.3751C8.66421 15.3751 9 15.0393 9 14.6251C9 14.2108 8.66421 13.8751 8.25 13.8751C7.83579 13.8751 7.5 14.2108 7.5 14.6251C7.5 15.0393 7.83579 15.3751 8.25 15.3751ZM15.75 15.3751C16.1642 15.3751 16.5 15.0393 16.5 14.6251C16.5 14.2108 16.1642 13.8751 15.75 13.8751C15.3358 13.8751 15 14.2108 15 14.6251C15 15.0393 15.3358 15.3751 15.75 15.3751Z" fill="white"/>
<path d="M30.9043 10.7908V2.94643H44.469V10.7908H30.9043ZM38.8538 15.3544V21.1799H36.225V15.3544H30V12.9359H45.4995V15.3544H38.8538ZM33.4069 8.45642H41.9874V5.32288H33.4069V8.45642Z" fill="#F55839"/>
<path d="M57.1578 11.1483V12.0316C57.7326 12.1578 58.2584 12.3611 58.735 12.6415C59.2258 12.9079 59.6464 13.2514 59.9969 13.672C60.3614 14.0926 60.6418 14.5763 60.8381 15.1231C61.0484 15.6699 61.1535 16.2728 61.1535 16.9317C61.1535 17.7168 61.0133 18.4179 60.7329 19.0348C60.4666 19.6657 60.095 20.1984 59.6183 20.6331C59.1416 21.0817 58.5808 21.4182 57.9359 21.6425C57.291 21.8809 56.604 22.0001 55.8749 22.0001C55.1599 22.0001 54.4799 21.8809 53.8349 21.6425C53.204 21.4182 52.6502 21.0817 52.1735 20.6331C51.6968 20.1984 51.3183 19.6657 51.0379 19.0348C50.7715 18.4179 50.6383 17.7168 50.6383 16.9317C50.6383 16.2728 50.7364 15.6769 50.9327 15.1441C51.129 14.5973 51.3954 14.1206 51.7319 13.714C52.0824 13.2934 52.496 12.9429 52.9727 12.6625C53.4494 12.3821 53.9681 12.1788 54.5289 12.0526V11.1483H48.0936V8.72982H60.06V5.30185H48.9979V2.94643H62.5626V8.72982H63.5931V11.1483H57.1578ZM55.8749 19.6446C56.2534 19.6446 56.604 19.5745 56.9264 19.4343C57.2489 19.2941 57.5293 19.0979 57.7676 18.8455C58.02 18.6071 58.2163 18.3267 58.3565 18.0043C58.4967 17.6678 58.5668 17.3103 58.5668 16.9317C58.5668 16.5672 58.4967 16.2237 58.3565 15.9012C58.2163 15.5787 58.02 15.2983 57.7676 15.06C57.5293 14.8076 57.2489 14.6113 56.9264 14.4711C56.604 14.3309 56.2534 14.2608 55.8749 14.2608C55.5104 14.2608 55.1669 14.3309 54.8444 14.4711C54.5219 14.6113 54.2415 14.8076 54.0032 15.06C53.7648 15.2983 53.5756 15.5787 53.4354 15.9012C53.2952 16.2237 53.2251 16.5672 53.2251 16.9317C53.2251 17.3103 53.2952 17.6678 53.4354 18.0043C53.5756 18.3267 53.7648 18.6071 54.0032 18.8455C54.2415 19.0979 54.5219 19.2941 54.8444 19.4343C55.1669 19.5745 55.5104 19.6446 55.8749 19.6446Z" fill="#F55839"/>
<path d="M78.3849 21.2009V16.469H65.8507V14.0716H70.0989V12.8939C69.6222 12.7537 69.1876 12.5504 68.795 12.284C68.4024 12.0176 68.0589 11.7021 67.7645 11.3376C67.4841 10.9731 67.2668 10.5735 67.1126 10.1389C66.9583 9.70423 66.8812 9.24857 66.8812 8.77188C66.8812 7.8185 67.1616 6.98429 67.7225 6.26925H66.1662V3.97693H70.183V2.00006H72.7908V3.97693H76.8918V6.26925H75.2724C75.5528 6.61976 75.7701 7.00532 75.9243 7.42593C76.0786 7.84654 76.1557 8.29519 76.1557 8.77188C76.1557 9.26259 76.0646 9.73227 75.8823 10.1809C75.714 10.6296 75.4757 11.0362 75.1673 11.4007C74.8588 11.7652 74.4943 12.0807 74.0737 12.3471C73.6531 12.6134 73.2044 12.8097 72.7277 12.9359V14.0716H78.3849V2.94643H80.8665V7.00532H83.4533V9.3397H80.8665V21.2009H78.3849ZM71.5079 10.6015C71.8024 10.6015 72.0758 10.5525 72.3281 10.4543C72.5805 10.3562 72.7978 10.223 72.9801 10.0547C73.1764 9.8865 73.3236 9.69722 73.4217 9.48692C73.5339 9.26259 73.59 9.02425 73.59 8.77188C73.59 8.26715 73.3867 7.83953 72.9801 7.48902C72.5875 7.12449 72.0968 6.94223 71.5079 6.94223C70.9051 6.94223 70.4073 7.12449 70.0148 7.48902C69.6362 7.83953 69.447 8.26715 69.447 8.77188C69.447 9.02425 69.496 9.26259 69.5942 9.48692C69.7063 9.69722 69.8535 9.8865 70.0358 10.0547C70.2181 10.223 70.4354 10.3562 70.6878 10.4543C70.9401 10.5525 71.2135 10.6015 71.5079 10.6015Z" fill="#F55839"/>
</svg>
